<mxfile host="app.diagrams.net" modified="2023-12-21T12:50:18.688Z" agent="Mozilla/5.0 (Windows NT 10.0; Win64; x64) AppleWebKit/537.36 (KHTML, like Gecko) Chrome/120.0.0.0 Safari/537.36" etag="B0eLR8qCo7TcaT-wBrxz" version="22.1.11" type="github">
  <diagram name="Page-1" id="D1wTHOpoCVznK_a-yqN4">
    <mxGraphModel dx="1500" dy="746" grid="1" gridSize="10" guides="1" tooltips="1" connect="1" arrows="1" fold="1" page="1" pageScale="1" pageWidth="827" pageHeight="1169" math="0" shadow="0">
      <root>
        <mxCell id="0" />
        <mxCell id="1" parent="0" />
        <mxCell id="9IPaRKAsTYbbkbORtt6L-1" value="" style="rounded=0;whiteSpace=wrap;html=1;" parent="1" vertex="1">
          <mxGeometry x="230" y="170" width="220" height="510" as="geometry" />
        </mxCell>
        <mxCell id="9IPaRKAsTYbbkbORtt6L-2" value="Add Employee" style="ellipse;whiteSpace=wrap;html=1;" parent="1" vertex="1">
          <mxGeometry x="283" y="276" width="100" height="40" as="geometry" />
        </mxCell>
        <mxCell id="9IPaRKAsTYbbkbORtt6L-9" value="Admin" style="shape=umlActor;verticalLabelPosition=bottom;verticalAlign=top;html=1;outlineConnect=0;" parent="1" vertex="1">
          <mxGeometry x="80" y="379" width="30" height="61" as="geometry" />
        </mxCell>
        <mxCell id="9IPaRKAsTYbbkbORtt6L-10" value="Employee" style="shape=umlActor;verticalLabelPosition=bottom;verticalAlign=top;html=1;outlineConnect=0;" parent="1" vertex="1">
          <mxGeometry x="580" y="378" width="30" height="61" as="geometry" />
        </mxCell>
        <mxCell id="9IPaRKAsTYbbkbORtt6L-18" value="" style="endArrow=none;html=1;rounded=0;entryX=0;entryY=0.5;entryDx=0;entryDy=0;" parent="1" target="9IPaRKAsTYbbkbORtt6L-2" edge="1">
          <mxGeometry width="50" height="50" relative="1" as="geometry">
            <mxPoint x="120" y="410" as="sourcePoint" />
            <mxPoint x="170" y="360" as="targetPoint" />
          </mxGeometry>
        </mxCell>
        <mxCell id="9IPaRKAsTYbbkbORtt6L-19" value="" style="endArrow=none;html=1;rounded=0;entryX=0;entryY=0.5;entryDx=0;entryDy=0;" parent="1" target="YwCqKWVe5QCVc16ujapD-2" edge="1">
          <mxGeometry width="50" height="50" relative="1" as="geometry">
            <mxPoint x="120" y="410" as="sourcePoint" />
            <mxPoint x="280" y="352" as="targetPoint" />
          </mxGeometry>
        </mxCell>
        <mxCell id="9IPaRKAsTYbbkbORtt6L-20" value="" style="endArrow=none;html=1;rounded=0;entryX=0;entryY=0.5;entryDx=0;entryDy=0;" parent="1" target="YwCqKWVe5QCVc16ujapD-6" edge="1">
          <mxGeometry width="50" height="50" relative="1" as="geometry">
            <mxPoint x="120" y="410" as="sourcePoint" />
            <mxPoint x="270" y="638" as="targetPoint" />
          </mxGeometry>
        </mxCell>
        <mxCell id="9IPaRKAsTYbbkbORtt6L-21" value="" style="endArrow=none;html=1;rounded=0;entryX=0;entryY=0.5;entryDx=0;entryDy=0;" parent="1" target="YwCqKWVe5QCVc16ujapD-5" edge="1">
          <mxGeometry width="50" height="50" relative="1" as="geometry">
            <mxPoint x="120" y="410" as="sourcePoint" />
            <mxPoint x="284.18000000000006" y="545.72" as="targetPoint" />
            <Array as="points" />
          </mxGeometry>
        </mxCell>
        <mxCell id="9IPaRKAsTYbbkbORtt6L-24" value="" style="endArrow=none;html=1;rounded=0;entryX=0;entryY=0.5;entryDx=0;entryDy=0;" parent="1" target="YwCqKWVe5QCVc16ujapD-3" edge="1">
          <mxGeometry width="50" height="50" relative="1" as="geometry">
            <mxPoint x="120" y="410" as="sourcePoint" />
            <mxPoint x="280" y="410" as="targetPoint" />
          </mxGeometry>
        </mxCell>
        <mxCell id="9IPaRKAsTYbbkbORtt6L-27" value="" style="endArrow=none;html=1;rounded=0;exitX=1;exitY=0.5;exitDx=0;exitDy=0;" parent="1" source="YwCqKWVe5QCVc16ujapD-1" edge="1">
          <mxGeometry width="50" height="50" relative="1" as="geometry">
            <mxPoint x="380" y="280" as="sourcePoint" />
            <mxPoint x="550" y="410" as="targetPoint" />
          </mxGeometry>
        </mxCell>
        <mxCell id="9IPaRKAsTYbbkbORtt6L-29" value="" style="endArrow=none;html=1;rounded=0;exitX=1;exitY=0.5;exitDx=0;exitDy=0;" parent="1" source="YwCqKWVe5QCVc16ujapD-5" edge="1">
          <mxGeometry width="50" height="50" relative="1" as="geometry">
            <mxPoint x="390" y="551" as="sourcePoint" />
            <mxPoint x="550" y="410" as="targetPoint" />
          </mxGeometry>
        </mxCell>
        <mxCell id="9IPaRKAsTYbbkbORtt6L-30" value="" style="endArrow=none;html=1;rounded=0;exitX=0.986;exitY=0.31;exitDx=0;exitDy=0;exitPerimeter=0;" parent="1" source="YwCqKWVe5QCVc16ujapD-4" edge="1">
          <mxGeometry width="50" height="50" relative="1" as="geometry">
            <mxPoint x="390" y="481.5" as="sourcePoint" />
            <mxPoint x="550" y="410" as="targetPoint" />
          </mxGeometry>
        </mxCell>
        <mxCell id="9IPaRKAsTYbbkbORtt6L-31" value="" style="endArrow=none;html=1;rounded=0;exitX=1;exitY=0.5;exitDx=0;exitDy=0;" parent="1" source="YwCqKWVe5QCVc16ujapD-6" edge="1">
          <mxGeometry width="50" height="50" relative="1" as="geometry">
            <mxPoint x="390" y="638" as="sourcePoint" />
            <mxPoint x="550" y="410" as="targetPoint" />
          </mxGeometry>
        </mxCell>
        <mxCell id="YwCqKWVe5QCVc16ujapD-1" value="Add Leave" style="ellipse;whiteSpace=wrap;html=1;" vertex="1" parent="1">
          <mxGeometry x="286" y="341" width="100" height="40" as="geometry" />
        </mxCell>
        <mxCell id="YwCqKWVe5QCVc16ujapD-2" value="Approve/Reject Leave" style="ellipse;whiteSpace=wrap;html=1;" vertex="1" parent="1">
          <mxGeometry x="288" y="406" width="100" height="40" as="geometry" />
        </mxCell>
        <mxCell id="YwCqKWVe5QCVc16ujapD-3" value="Assign Task" style="ellipse;whiteSpace=wrap;html=1;" vertex="1" parent="1">
          <mxGeometry x="291" y="470" width="100" height="40" as="geometry" />
        </mxCell>
        <mxCell id="YwCqKWVe5QCVc16ujapD-4" value="View Task" style="ellipse;whiteSpace=wrap;html=1;" vertex="1" parent="1">
          <mxGeometry x="290" y="537" width="100" height="40" as="geometry" />
        </mxCell>
        <mxCell id="YwCqKWVe5QCVc16ujapD-5" value="Salary" style="ellipse;whiteSpace=wrap;html=1;" vertex="1" parent="1">
          <mxGeometry x="294" y="604" width="100" height="40" as="geometry" />
        </mxCell>
        <mxCell id="YwCqKWVe5QCVc16ujapD-6" value="Login" style="ellipse;whiteSpace=wrap;html=1;" vertex="1" parent="1">
          <mxGeometry x="279" y="210" width="100" height="40" as="geometry" />
        </mxCell>
        <mxCell id="YwCqKWVe5QCVc16ujapD-9" value="&lt;font style=&quot;font-size: 9px;&quot;&gt;Employee Management System (EMS)&lt;/font&gt;" style="text;html=1;strokeColor=none;fillColor=none;align=center;verticalAlign=middle;whiteSpace=wrap;rounded=0;" vertex="1" parent="1">
          <mxGeometry x="241" y="170" width="180" height="30" as="geometry" />
        </mxCell>
      </root>
    </mxGraphModel>
  </diagram>
</mxfile>
